<mxfile host="app.diagrams.net" modified="2021-11-23T07:47:45.163Z" agent="5.0 (Windows NT 10.0; Win64; x64) AppleWebKit/537.36 (KHTML, like Gecko) Chrome/96.0.4664.45 Safari/537.36 Edg/96.0.1054.29" etag="5p1QojsQsDMLyMQ_hrGI" version="15.8.3" type="github">
  <diagram id="R6QwKnBVPNMtczXMTmGr" name="第 1 页">
    <mxGraphModel dx="1422" dy="1931" grid="1" gridSize="10" guides="1" tooltips="1" connect="1" arrows="1" fold="1" page="1" pageScale="1" pageWidth="827" pageHeight="1169" math="0" shadow="0">
      <root>
        <mxCell id="0" />
        <mxCell id="1" parent="0" />
        <mxCell id="2Eb2BjLE-wbxRdB6C79W-3" value="" style="edgeStyle=orthogonalEdgeStyle;rounded=0;orthogonalLoop=1;jettySize=auto;html=1;exitX=0.5;exitY=0;exitDx=0;exitDy=0;" edge="1" parent="1" source="2Eb2BjLE-wbxRdB6C79W-1" target="2Eb2BjLE-wbxRdB6C79W-2">
          <mxGeometry relative="1" as="geometry" />
        </mxCell>
        <mxCell id="2Eb2BjLE-wbxRdB6C79W-1" value="Element" style="rounded=1;whiteSpace=wrap;html=1;" vertex="1" parent="1">
          <mxGeometry x="660" width="120" height="60" as="geometry" />
        </mxCell>
        <mxCell id="2Eb2BjLE-wbxRdB6C79W-2" value="Thread" style="whiteSpace=wrap;html=1;rounded=1;" vertex="1" parent="1">
          <mxGeometry x="660" y="-140" width="120" height="60" as="geometry" />
        </mxCell>
        <mxCell id="2Eb2BjLE-wbxRdB6C79W-43" style="edgeStyle=orthogonalEdgeStyle;rounded=0;orthogonalLoop=1;jettySize=auto;html=1;exitX=1;exitY=0.5;exitDx=0;exitDy=0;entryX=0;entryY=0.5;entryDx=0;entryDy=0;" edge="1" parent="1" source="2Eb2BjLE-wbxRdB6C79W-9" target="2Eb2BjLE-wbxRdB6C79W-11">
          <mxGeometry relative="1" as="geometry" />
        </mxCell>
        <mxCell id="2Eb2BjLE-wbxRdB6C79W-9" value="ActiveElement" style="whiteSpace=wrap;html=1;rounded=1;" vertex="1" parent="1">
          <mxGeometry x="270" y="310" width="120" height="60" as="geometry" />
        </mxCell>
        <mxCell id="2Eb2BjLE-wbxRdB6C79W-42" style="edgeStyle=orthogonalEdgeStyle;rounded=0;orthogonalLoop=1;jettySize=auto;html=1;entryX=0.5;entryY=1;entryDx=0;entryDy=0;" edge="1" parent="1" source="2Eb2BjLE-wbxRdB6C79W-11" target="2Eb2BjLE-wbxRdB6C79W-1">
          <mxGeometry relative="1" as="geometry">
            <Array as="points">
              <mxPoint x="720" y="90" />
              <mxPoint x="720" y="90" />
            </Array>
          </mxGeometry>
        </mxCell>
        <mxCell id="2Eb2BjLE-wbxRdB6C79W-11" value="PassiveElement" style="whiteSpace=wrap;html=1;rounded=1;" vertex="1" parent="1">
          <mxGeometry x="660" y="310" width="120" height="60" as="geometry" />
        </mxCell>
        <mxCell id="2Eb2BjLE-wbxRdB6C79W-44" style="edgeStyle=orthogonalEdgeStyle;rounded=0;orthogonalLoop=1;jettySize=auto;html=1;exitX=0.5;exitY=0;exitDx=0;exitDy=0;entryX=0.25;entryY=1;entryDx=0;entryDy=0;" edge="1" parent="1" source="2Eb2BjLE-wbxRdB6C79W-19" target="2Eb2BjLE-wbxRdB6C79W-9">
          <mxGeometry relative="1" as="geometry" />
        </mxCell>
        <mxCell id="2Eb2BjLE-wbxRdB6C79W-19" value="Monster" style="whiteSpace=wrap;html=1;rounded=1;" vertex="1" parent="1">
          <mxGeometry x="120" y="610" width="120" height="60" as="geometry" />
        </mxCell>
        <mxCell id="2Eb2BjLE-wbxRdB6C79W-45" style="edgeStyle=orthogonalEdgeStyle;rounded=0;orthogonalLoop=1;jettySize=auto;html=1;exitX=0.5;exitY=0;exitDx=0;exitDy=0;entryX=0.5;entryY=1;entryDx=0;entryDy=0;" edge="1" parent="1" source="2Eb2BjLE-wbxRdB6C79W-21" target="2Eb2BjLE-wbxRdB6C79W-9">
          <mxGeometry relative="1" as="geometry" />
        </mxCell>
        <mxCell id="2Eb2BjLE-wbxRdB6C79W-21" value="Brohter" style="whiteSpace=wrap;html=1;rounded=1;" vertex="1" parent="1">
          <mxGeometry x="270" y="610" width="120" height="60" as="geometry" />
        </mxCell>
        <mxCell id="2Eb2BjLE-wbxRdB6C79W-47" style="edgeStyle=orthogonalEdgeStyle;rounded=0;orthogonalLoop=1;jettySize=auto;html=1;exitX=0.5;exitY=0;exitDx=0;exitDy=0;entryX=0.25;entryY=1;entryDx=0;entryDy=0;" edge="1" parent="1" source="2Eb2BjLE-wbxRdB6C79W-27" target="2Eb2BjLE-wbxRdB6C79W-11">
          <mxGeometry relative="1" as="geometry" />
        </mxCell>
        <mxCell id="2Eb2BjLE-wbxRdB6C79W-27" value="Wall" style="whiteSpace=wrap;html=1;rounded=1;" vertex="1" parent="1">
          <mxGeometry x="580" y="600" width="120" height="60" as="geometry" />
        </mxCell>
        <mxCell id="2Eb2BjLE-wbxRdB6C79W-48" style="edgeStyle=orthogonalEdgeStyle;rounded=0;orthogonalLoop=1;jettySize=auto;html=1;exitX=0.5;exitY=0;exitDx=0;exitDy=0;entryX=0.75;entryY=1;entryDx=0;entryDy=0;" edge="1" parent="1" source="2Eb2BjLE-wbxRdB6C79W-29" target="2Eb2BjLE-wbxRdB6C79W-11">
          <mxGeometry relative="1" as="geometry" />
        </mxCell>
        <mxCell id="2Eb2BjLE-wbxRdB6C79W-29" value="Barrier" style="whiteSpace=wrap;html=1;rounded=1;" vertex="1" parent="1">
          <mxGeometry x="740" y="600" width="120" height="60" as="geometry" />
        </mxCell>
        <mxCell id="2Eb2BjLE-wbxRdB6C79W-46" style="edgeStyle=orthogonalEdgeStyle;rounded=0;orthogonalLoop=1;jettySize=auto;html=1;exitX=0.5;exitY=0;exitDx=0;exitDy=0;entryX=0.75;entryY=1;entryDx=0;entryDy=0;" edge="1" parent="1" source="2Eb2BjLE-wbxRdB6C79W-31" target="2Eb2BjLE-wbxRdB6C79W-9">
          <mxGeometry relative="1" as="geometry" />
        </mxCell>
        <mxCell id="2Eb2BjLE-wbxRdB6C79W-31" value="Bullet" style="whiteSpace=wrap;html=1;rounded=1;" vertex="1" parent="1">
          <mxGeometry x="430" y="610" width="120" height="60" as="geometry" />
        </mxCell>
        <mxCell id="2Eb2BjLE-wbxRdB6C79W-49" style="edgeStyle=orthogonalEdgeStyle;rounded=0;orthogonalLoop=1;jettySize=auto;html=1;exitX=0.5;exitY=0;exitDx=0;exitDy=0;entryX=0.25;entryY=1;entryDx=0;entryDy=0;" edge="1" parent="1" source="2Eb2BjLE-wbxRdB6C79W-33" target="2Eb2BjLE-wbxRdB6C79W-19">
          <mxGeometry relative="1" as="geometry" />
        </mxCell>
        <mxCell id="2Eb2BjLE-wbxRdB6C79W-33" value="NormalMonster" style="whiteSpace=wrap;html=1;rounded=1;" vertex="1" parent="1">
          <mxGeometry x="10" y="750" width="120" height="60" as="geometry" />
        </mxCell>
        <mxCell id="2Eb2BjLE-wbxRdB6C79W-50" style="edgeStyle=orthogonalEdgeStyle;rounded=0;orthogonalLoop=1;jettySize=auto;html=1;exitX=0.5;exitY=0;exitDx=0;exitDy=0;entryX=0.75;entryY=1;entryDx=0;entryDy=0;" edge="1" parent="1" source="2Eb2BjLE-wbxRdB6C79W-35" target="2Eb2BjLE-wbxRdB6C79W-19">
          <mxGeometry relative="1" as="geometry" />
        </mxCell>
        <mxCell id="2Eb2BjLE-wbxRdB6C79W-35" value="KingMonster" style="whiteSpace=wrap;html=1;rounded=1;" vertex="1" parent="1">
          <mxGeometry x="230" y="750" width="120" height="60" as="geometry" />
        </mxCell>
      </root>
    </mxGraphModel>
  </diagram>
</mxfile>
